<?xml version="1.0" encoding="UTF-8"?><svg id="yellow" xmlns="http://www.w3.org/2000/svg" viewBox="0 0 208.31 210.04"><defs><style>.cls-1{fill:#ff0;}</style></defs><g id="symbol"><path class="cls-1" d="m208.31,86.16l-70.48,40.69c-1.5.86-3.4.93-5,0-1.06-.61-1.81-1.55-2.19-2.62l-18.35-50.38c-3.09-8.54-9.1-16.07-17.58-20.97-19.13-11.05-43.6-4.49-54.64,14.64L3.32,131.15C-3.28,105.47-.22,77.29,14.08,52.52,43.08,2.3,107.3-14.91,157.52,14.08c27.76,16.03,45.44,42.83,50.79,72.07Z"/><path class="cls-1" d="m195.95,157.52c-28.99,50.22-93.21,67.43-143.43,38.43-12.27-7.08-22.57-16.26-30.7-26.83l48.55-84.1c1.38-2.39,4.44-3.21,6.83-1.83,1.06.61,1.81,1.55,2.19,2.62l18.35,50.38c3.09,8.54,9.1,16.07,17.58,20.97,12.82,7.4,28.03,6.9,40,0l52.41-30.25c-2.23,10.49-6.13,20.81-11.78,30.61Z"/></g></svg>